<svg width="74" height="41" viewBox="0 0 74 41" fill="none" xmlns="http://www.w3.org/2000/svg">
<path d="M18.4469 16.7443H20.0004L19.2239 14.7899L18.4469 16.7443ZM26.7086 23.305V24.2125H29.3213V25.1899H26.7086V26.2372H29.6036L30.9452 24.771L29.6743 23.305H26.7086ZM47.1151 14.7899L46.2677 16.7443H47.892L47.1151 14.7899ZM34.2641 26.795V22.8165L32.428 24.771L34.2641 26.795ZM37.724 23.9335C37.6534 23.5147 37.3706 23.305 36.9468 23.305H35.4643V24.5613H37.0179C37.4414 24.5614 37.724 24.3521 37.724 23.9335ZM42.6664 24.4221C42.8077 24.3521 42.8786 24.1425 42.8786 23.9336C42.9493 23.6546 42.8077 23.5148 42.6664 23.4449C42.5256 23.375 42.3135 23.375 42.1019 23.375H40.6894V24.492H42.1018C42.3134 24.492 42.5255 24.492 42.6664 24.4221Z" fill="#1a1a1a"/>
<path d="M52.8339 12.9748V13.8124L52.4105 12.9748H49.0921V13.8124L48.6682 12.9748H44.1491C43.3724 12.9748 42.7366 13.1145 42.172 13.3937V12.9748H38.9946V13.3937C38.6416 13.1146 38.218 12.9748 37.6531 12.9748H26.2846L25.5076 14.7198L24.731 12.9748H21.1299V13.8124L20.7768 12.9748H17.6699L16.2574 16.2552L14.6335 19.8149L14.6037 19.8848H18.2799L18.3055 19.8149L18.7293 18.7681H19.6472L20.0709 19.8848H24.166V19.0473L24.5193 19.8847H26.5668L26.9197 19.0473V19.8848H36.7349V18.07H36.8764C37.0175 18.07 37.0175 18.07 37.0175 18.2795V19.815H42.1015V19.3962C42.5252 19.6059 43.1603 19.815 44.0077 19.815H46.1263L46.55 18.6985H47.5383L47.9619 19.815H52.0572V18.7682L52.693 19.815H56.0117V12.9748H52.8339ZM28.8971 18.8381H27.7672V14.9991L27.6966 15.1592V15.1573L26.0539 18.8381H25.0132L23.3187 14.9991V18.8381H20.918L20.4238 17.7911H18.0228L17.5284 18.8381H16.2872L18.376 13.9521H20.1412L22.1182 18.6285V13.9521H23.989L24.0223 14.0221H24.0247L24.9156 15.9387L25.5554 17.3747L25.578 17.3024L26.9902 13.9522H28.897V18.8381H28.8971ZM33.7694 14.9991H31.0155V15.9064H33.6987V16.8835H31.0155V17.861H33.7694V18.9076H29.8152V13.9522H33.7694V14.9991ZM38.8057 16.7989C38.8076 16.8005 38.8099 16.8016 38.8121 16.8031C38.8389 16.831 38.8617 16.859 38.8812 16.8858C39.0165 17.0611 39.1258 17.3217 39.1313 17.704L39.1324 17.7238C39.1324 17.7276 39.1331 17.7309 39.1331 17.7348L39.1329 17.7408C39.1346 17.7793 39.1356 17.8185 39.1356 17.861V18.8382H38.0766V18.2796C38.0766 18.0004 38.0766 17.5815 37.8645 17.3024C37.8053 17.2425 37.7347 17.1948 37.6567 17.162C37.5509 17.0943 37.3503 17.0932 37.0175 17.0932H35.7461V18.8382H34.546V13.9522H37.2294C37.8645 13.9522 38.2884 13.9522 38.6415 14.1616C38.9875 14.367 39.1965 14.7076 39.2044 15.2469C39.1881 15.9897 38.7057 16.3973 38.3589 16.5347C38.3589 16.5347 38.5945 16.5816 38.8057 16.7989ZM41.1835 18.8381H39.983V13.9521H41.1835V18.8381ZM54.9528 18.8381H53.3991L51.1396 15.1386V18.2097L51.1322 18.2025V18.8411H49.9393V18.8382H48.7388L48.3151 17.7912H45.8435L45.4199 18.9077H44.0783C43.5138 18.9077 42.8072 18.7683 42.3837 18.3495C41.9601 17.9308 41.7484 17.3723 41.7484 16.4651C41.7484 15.7672 41.8895 15.0687 42.3837 14.5105C42.7365 14.0914 43.3723 13.9522 44.1489 13.9522H45.2789V14.9991H44.1489C43.7252 14.9991 43.5138 15.0686 43.2308 15.2784C43.0193 15.4877 42.878 15.9064 42.878 16.3949C42.878 16.9535 42.9487 17.3024 43.2308 17.5815C43.4431 17.7912 43.7253 17.8611 44.0783 17.8611H44.5725L46.1964 14.0223H47.9618L49.9392 18.6987V14.0224H51.7043L53.7517 17.4423V14.0224H54.9526V18.8383H54.9528V18.8381Z" fill="#1a1a1a"/>
<path d="M37.7996 15.9881C37.8202 15.9663 37.8389 15.9416 37.8547 15.9133C37.9187 15.8132 37.992 15.6329 37.9525 15.3869C37.9507 15.3654 37.9472 15.3441 37.9418 15.3233C37.9405 15.3176 37.9407 15.3127 37.9392 15.3071L37.9385 15.3072C37.9034 15.1876 37.8137 15.1142 37.7242 15.0696C37.5827 15 37.3708 15 37.1591 15H35.7466V16.117H37.1591C37.3708 16.117 37.5828 16.117 37.7242 16.047C37.7454 16.0364 37.7643 16.0219 37.7825 16.0055L37.7827 16.0064C37.7828 16.0063 37.79 15.9989 37.7996 15.9881ZM59.1193 25.8189C59.1193 25.3304 58.9782 24.8416 58.7665 24.4927V21.352H58.7632V21.1423H55.363C54.9227 21.1423 54.3884 21.5609 54.3884 21.5609V21.1423H51.1404C50.6459 21.1423 50.0108 21.282 49.728 21.5609V21.1423H43.938V21.5608C43.5147 21.2121 42.7373 21.1422 42.3845 21.1422H38.5714V21.5607C38.2185 21.212 37.3707 21.1421 36.9469 21.1421H32.7108L31.722 22.1891L30.804 21.1421H24.4493V28.192H30.6631L31.6841 27.1825L32.5691 28.192H36.5236V26.5867H36.8769C37.3707 26.5867 38.0065 26.5867 38.5008 26.3771V28.2618H41.6783V26.4469H41.8192C42.0313 26.4469 42.0313 26.4469 42.0313 26.6563V28.2618H51.6341C52.2702 28.2618 52.9052 28.1218 53.2582 27.8427V28.2618H56.2948C56.9298 28.2618 57.5658 28.192 57.9895 27.9127C58.6396 27.5271 59.0494 26.8446 59.1103 26.0306C59.1132 26.0065 59.1167 25.9825 59.1189 25.9583L59.1148 25.9544C59.1174 25.9092 59.1193 25.8645 59.1193 25.8189ZM36.877 25.4003H35.4644V27.2148H33.1435L31.7927 25.6791L31.788 25.6842L31.722 25.6091L30.1686 27.2148H25.6496V22.329H30.2393L31.4933 23.6867L31.7569 23.971L31.7926 23.9343L33.2756 22.3291H37.0179C37.7442 22.3291 38.5575 22.5063 38.8657 23.2368C38.9028 23.3814 38.9243 23.5422 38.9243 23.7249C38.9243 25.1208 37.9357 25.4003 36.877 25.4003ZM43.938 25.3303C44.0791 25.5392 44.1498 25.8188 44.1498 26.2378V27.2147H42.9495V26.5867C42.9495 26.3071 42.9495 25.8188 42.7374 25.6091C42.5966 25.4003 42.3137 25.4003 41.8904 25.4003H40.6195V27.2148H39.4192V22.2592H42.1022C42.6667 22.2592 43.161 22.2592 43.5147 22.4684C43.8675 22.678 44.1498 23.027 44.1498 23.5854C44.1498 24.353 43.6557 24.7718 43.3025 24.9116C43.6557 25.0506 43.8675 25.1907 43.938 25.3303ZM48.8104 23.3057H46.0561V24.2132H48.7395V25.1906H46.0561V26.1679H48.8104V27.2147H44.8561V22.2591H48.8104V23.3057ZM51.7758 27.2148H49.5161V26.168H51.7758C51.9872 26.168 52.1288 26.168 52.2704 26.0282C52.341 25.9583 52.4112 25.8189 52.4112 25.6792C52.4112 25.5393 52.341 25.4004 52.2704 25.3304C52.1995 25.2606 52.058 25.1908 51.8463 25.1908C50.7164 25.1209 49.3749 25.1908 49.3749 23.6554C49.3749 22.9573 49.7985 22.1894 51.0696 22.1894H53.3997V23.3758H51.2109C50.9992 23.3758 50.8577 23.3758 50.7163 23.4457C50.5755 23.5156 50.5755 23.6554 50.5755 23.7948C50.5755 24.0043 50.7163 24.0741 50.8576 24.1434C50.9992 24.2134 51.1402 24.2134 51.2813 24.2134H51.9169C52.5525 24.2134 52.976 24.353 53.2584 24.6323C53.4704 24.8417 53.6116 25.1908 53.6116 25.6792C53.6116 26.7259 52.9761 27.2148 51.7758 27.2148ZM57.8484 26.7259C57.5663 27.0054 57.0717 27.2148 56.3653 27.2148H54.1063V26.168H56.3652C56.5772 26.168 56.7187 26.168 56.8598 26.0282C56.9302 25.9583 57.001 25.8189 57.001 25.6792C57.001 25.5393 56.9302 25.4004 56.8598 25.3304C56.7891 25.2606 56.648 25.1908 56.4361 25.1908C55.3067 25.1209 53.9647 25.1908 53.9647 23.6555C53.9647 22.9921 54.3487 22.3928 55.2956 22.2148C55.4162 22.198 55.5377 22.1896 55.6595 22.1894H57.9898V23.3758H55.8007C55.5888 23.3758 55.4477 23.3758 55.3067 23.4457C55.2356 23.5156 55.1649 23.6554 55.1649 23.7948C55.1649 24.0043 55.2356 24.0741 55.4477 24.1434C55.5888 24.2134 55.73 24.2134 55.8714 24.2134H56.5067C56.8153 24.2134 57.0487 24.251 57.2622 24.3252C57.4578 24.3952 58.1053 24.6814 58.2501 25.4288C58.2627 25.5071 58.2719 25.5888 58.2719 25.6792C58.2719 26.0981 58.1307 26.447 57.8484 26.7259Z" fill="#1a1a1a"/>
</svg>
