<svg width="24" height="24" viewBox="0 0 24 24" fill="none" xmlns="http://www.w3.org/2000/svg">
<path d="M8.27744 8.85696C6.74913 9.60208 5.49035 10.7754 4.63778 12.2495C4.49913 12.4888 4.58116 12.7945 4.81989 12.9326C4.89578 12.9768 4.98205 13.0001 5.06988 13.0001C5.24275 13.0001 5.4107 12.9107 5.503 12.7505C6.25595 11.4493 7.36727 10.4136 8.71591 9.75541C8.96397 9.63433 9.067 9.33499 8.94588 9.08697C8.82578 8.83891 8.52747 8.7349 8.27744 8.85696Z" fill="white"/>
<path d="M23.5 16H22.4747C22.2329 10.9043 18.3514 6.75494 13.3727 6.10033C13.4535 5.9162 13.5 5.71366 13.5 5.5C13.5 4.67284 12.8272 4 12 4C11.1728 4 10.5 4.67284 10.5 5.5C10.5 5.7137 10.5465 5.9162 10.6273 6.10033C5.64863 6.75494 1.76709 10.9043 1.52531 16H0.500016C0.434341 16 0.369301 16.0129 0.308617 16.038C0.247933 16.0631 0.192794 16.0999 0.146355 16.1464C0.0999158 16.1928 0.0630865 16.2479 0.0379737 16.3086C0.0128608 16.3693 -4.30326e-05 16.4343 1.07814e-07 16.5V17.001C1.07814e-07 17.7535 0.220688 18.4825 0.638672 19.1094C0.821018 19.3836 1.0684 19.6085 1.35875 19.7639C1.64911 19.9193 1.97341 20.0004 2.30273 20H21.6973C22.0267 20.0003 22.3511 19.9191 22.6415 19.7636C22.9319 19.6082 23.1794 19.3832 23.3618 19.1089C23.7793 18.4819 24 17.7535 24 17.001V16.5C24 16.4343 23.9871 16.3693 23.962 16.3086C23.9369 16.2479 23.9001 16.1928 23.8536 16.1464C23.8072 16.0999 23.7521 16.0631 23.6914 16.038C23.6307 16.0129 23.5657 16 23.5 16ZM12 5.00003C12.2759 5.00003 12.5 5.22414 12.5 5.50005C12.5 5.77591 12.2759 6.00006 12 6.00006C11.7241 6.00006 11.5 5.77595 11.5 5.50005C11.5 5.22414 11.7241 5.00003 12 5.00003ZM12 7C17.0695 7 21.2122 10.9947 21.4747 16H2.52534C2.78784 10.9947 6.93047 7 12 7ZM23 17.001C23.0005 17.5541 22.8366 18.0949 22.5293 18.5547C22.4381 18.6918 22.3144 18.8042 22.1692 18.8819C22.024 18.9596 21.8619 19.0002 21.6973 19H2.30273C2.13796 19.0002 1.97571 18.9596 1.83045 18.8818C1.68519 18.804 1.56144 18.6915 1.47023 18.5543C1.16326 18.0945 0.999615 17.5539 1.00003 17.0011V17.0001H23V17.001Z" fill="white"/>
</svg>
