<svg width="24" height="24" viewBox="0 0 24 24" fill="none" xmlns="http://www.w3.org/2000/svg">
<g clip-path="url(#clip0_0_94)">
<path d="M9 1.1001C11.2768 1.10013 13.4284 1.55169 15.0586 2.3667C16.9086 3.29162 17.8994 4.58679 17.8994 6.00049V9.15674L17.9854 9.16943C21.3248 9.64931 23.9001 12.5287 23.9004 15.9985C23.9004 19.8035 20.8039 22.8999 16.999 22.8999C15.8801 22.8998 14.8231 22.6314 13.8877 22.1567L13.8496 22.1382L13.8096 22.1519C12.3853 22.6411 10.7341 22.8999 9 22.8999C6.72269 22.8999 4.57066 22.4484 2.94043 21.6333C1.09054 20.7083 0.0996094 19.4133 0.0996094 17.9995V6.00049C0.0996094 4.58679 1.09058 3.29162 2.94043 2.3667C4.57066 1.5516 6.72272 1.1001 9 1.1001ZM1.90039 17.9995C1.90039 18.3896 2.10566 18.7784 2.45898 19.1362C2.8132 19.4949 3.32427 19.8318 3.95605 20.1216C5.22011 20.7013 6.98479 21.0991 9 21.0991C9.9849 21.0991 10.9565 21.0017 11.8545 20.8179L12.0273 20.7827L11.9082 20.6519C11.4261 20.125 11.0277 19.5269 10.7285 18.8784L10.6992 18.814L10.6289 18.8208C10.094 18.873 9.54873 18.8999 9 18.8999C6.72269 18.8999 4.57067 18.4484 2.94043 17.6333C2.61985 17.473 2.3254 17.3012 2.05664 17.1196L1.90039 17.0142V17.9995ZM16.9756 10.8989C14.1742 10.9118 11.8987 13.1942 11.8984 15.9985C11.8984 18.8109 14.1867 21.0989 16.999 21.0991C19.8115 21.0991 22.0996 18.811 22.0996 15.9985C22.0994 13.1943 19.8247 10.912 17.0234 10.8989H17.0205C17.0138 10.8991 17.0068 10.8997 17.0039 10.8999H16.9951C16.9923 10.8997 16.9853 10.8991 16.9785 10.8989H16.9756ZM1.90039 13.9995C1.90039 14.3896 2.10572 14.7784 2.45898 15.1362C2.8132 15.495 3.32427 15.8318 3.95605 16.1216C5.22013 16.7014 6.9847 17.1001 9 17.1001C9.35775 17.1002 9.71542 17.0874 10.0723 17.062L10.1787 17.0542L10.1641 16.9478C10.1212 16.6375 10.0986 16.3203 10.0986 15.9985C10.0987 15.6577 10.1237 15.3171 10.1738 14.98L10.1924 14.8579L10.0684 14.8657C9.71506 14.888 9.35855 14.8999 9 14.8999C6.72276 14.8999 4.57067 14.4484 2.94043 13.6333C2.61987 13.473 2.3254 13.3012 2.05664 13.1196L1.90039 13.0142V13.9995ZM1.90039 10.0005C1.9005 10.3904 2.10588 10.7785 2.45898 11.1362C2.81319 11.4949 3.32429 11.8318 3.95605 12.1216C5.22012 12.7013 6.98473 13.1001 9 13.1001C9.57958 13.1005 10.1587 13.0667 10.7344 12.9995L10.7891 12.9927L10.8125 12.9448C11.242 12.0795 11.8474 11.3129 12.5898 10.6948L12.5039 10.521C11.4124 10.7688 10.2244 10.8999 9 10.8999C6.72275 10.8999 4.57066 10.4485 2.94043 9.6333C2.61986 9.4731 2.32542 9.30126 2.05664 9.11963L1.90039 9.01416V10.0005ZM9 2.90088C6.98481 2.90088 5.22011 3.29868 3.95605 3.87842C3.32427 4.16819 2.8132 4.50505 2.45898 4.86377C2.10563 5.22164 1.90039 5.61036 1.90039 6.00049C1.90044 6.39044 2.10588 6.77849 2.45898 7.13623C2.8132 7.49496 3.32427 7.83278 3.95605 8.12256C5.2201 8.70229 6.98486 9.1001 9 9.1001C11.0151 9.10007 12.78 8.70233 14.0439 8.12256C14.6756 7.8328 15.1859 7.49491 15.54 7.13623C15.8932 6.77844 16.0996 6.39051 16.0996 6.00049C16.0996 5.61034 15.8934 5.22166 15.54 4.86377C15.1858 4.5051 14.6747 4.16816 14.043 3.87842C12.779 3.29879 11.0149 2.90091 9 2.90088Z" fill="#2C2C2C" stroke="white" stroke-width="0.2"/>
</g>
<defs>
<clipPath id="clip0_0_94">
<rect width="24" height="24" fill="white"/>
</clipPath>
</defs>
</svg>
